<svg class="svg_iconlogo_hrfunnel" xmlns="http://www.w3.org/2000/svg" viewBox="0 0 149.19 43.58">
							<g id="Layer_2" data-name="Layer 2">
								<g id="Layer_4" data-name="Layer 4"> <path class="svglg-ic-byhrv-hrfunnel-1" d="M148.94,13.2V29h-2.69V13.2Z"></path> <path class="svglg-ic-byhrv-hrfunnel-1" d="M72.64,17.94H70.12v1.85l-.1-.16c-.09-.13-.19-.26-.29-.39a3.3,3.3,0,0,0-.54-.49A4.44,4.44,0,0,0,67.13,18h0a4.88,4.88,0,0,0-.54,0,6.88,6.88,0,0,0-2.14.31,5.56,5.56,0,0,0-3.48,4.07,7,7,0,0,0-.09,1.14,7.54,7.54,0,0,0,.1,1.23A5.53,5.53,0,0,0,65.63,29a5.45,5.45,0,0,0,.65,0h.19a4.92,4.92,0,0,0,1.16-.17l.11,0a4,4,0,0,0,2-1.21c.1-.13.19-.27.27-.41l.11-.2v2h2.56V17.94Zm-5.86,8.72a3.08,3.08,0,0,1-3.24-3.21,3.06,3.06,0,0,1,3.24-3.19C71,20.26,71,26.66,66.78,26.66Z"></path> <path class="svglg-ic-byhrv-hrfunnel-1" d="M92.33,17.94H89.81v1.85l-.1-.16c-.09-.13-.19-.26-.29-.39a3.3,3.3,0,0,0-.54-.49A4.44,4.44,0,0,0,86.82,18h0a4.88,4.88,0,0,0-.54,0,6.88,6.88,0,0,0-2.14.31,5.56,5.56,0,0,0-3.48,4.07,7,7,0,0,0-.09,1.14,7.54,7.54,0,0,0,.1,1.23A5.53,5.53,0,0,0,85.32,29a5.45,5.45,0,0,0,.65,0h.19a4.92,4.92,0,0,0,1.16-.17l.11,0a4,4,0,0,0,2-1.21c.1-.13.19-.27.27-.41l.11-.2v2h2.56V17.94Zm-5.86,8.72a3.08,3.08,0,0,1-3.24-3.21,3.06,3.06,0,0,1,3.24-3.19C90.74,20.26,90.74,26.66,86.47,26.66Z"></path> <path class="svglg-ic-byhrv-hrfunnel-1" d="M79.81,17.93a3.24,3.24,0,0,0-3.09,1.54V17.93H74V29.06h2.71V23.33a2.51,2.51,0,0,1,2.73-2.75l.39,0V17.93Z"></path> <path id="f" class="svglg-ic-byhrv-hrfunnel-1" d="M97.1,29.08V20.5h2.24l.34-2.6H97.1V17c0-.75.21-1.27,1.29-1.27h1.38V13.38a18.46,18.46,0,0,0-2-.1,3.14,3.14,0,0,0-3.35,3.44v1.17h-1.3v2.6h1.3v8.58Z"></path> <path class="svglg-ic-byhrv-hrfunnel-1" d="M140.55,26.46A3.14,3.14,0,0,1,137,25.35l5.67-1.92,2.23-.76a5.41,5.41,0,1,0,0,1.74l-2.85,1A3.12,3.12,0,0,1,140.55,26.46Zm-2-5.94a3.14,3.14,0,0,1,3.37.91l-5.49,1.86A3.14,3.14,0,0,1,138.53,20.52Z"></path> <path class="svglg-ic-byhrv-hrfunnel-1" d="M55,17.93a4.1,4.1,0,0,0-2.68.88V13.24H49.61V29h2.71v-7.2a1.14,1.14,0,0,1,.47-.93,2.55,2.55,0,0,1,1.5-.47c1.44,0,2.49.84,2.49,2.84V29h2.71V23.27C59.49,20,58.11,17.93,55,17.93Z"></path> <path class="svglg-ic-byhrv-hrfunnel-1" d="M108.75,17.91h-1v6.73a1.92,1.92,0,0,1-1.88,1.93h0c-1.73,0-2.64-1.27-2.64-2.93V17.91h-2.71v5.75c0,3.4,1.91,5.38,4.53,5.38a4.82,4.82,0,0,0,2.73-1.14v1.16h2.6V17.91Z"></path> <path class="svglg-ic-byhrv-hrfunnel-1" d="M116.91,17.91a4.87,4.87,0,0,0-2.64,1.16V17.91h-2.58V29h2.58V22.33a1.94,1.94,0,0,1,1.91-2h0c1.73,0,2.64,1.27,2.64,2.93V29h2.71V23.29C121.56,19.84,119.49,17.91,116.91,17.91Z"></path> <path class="svglg-ic-byhrv-hrfunnel-1" d="M128.12,17.91a4.87,4.87,0,0,0-2.64,1.16V17.91H122.9V29h2.58V22.33a1.94,1.94,0,0,1,1.91-2h0c1.73,0,2.64,1.27,2.64,2.93V29h2.71V23.29C132.76,19.84,130.7,17.91,128.12,17.91Z"></path> <path id="App_Icon_Placeholder" data-name="App Icon Placeholder" class="svglg-ic-byhrv-hrfunnel-2" d="M14.82,0H27.7C32,0,34.1,0,36.4.73a9,9,0,0,1,5.4,5.4c.73,2.3.73,4.43.73,8.7V27.7c0,4.27,0,6.4-.73,8.7a9,9,0,0,1-5.4,5.4c-2.3.73-4.43.73-8.7.73H14.82c-4.27,0-6.4,0-8.7-.73a9,9,0,0,1-5.4-5.4C0,34.1,0,32,0,27.7V14.82c0-4.27,0-6.4.73-8.7A9,9,0,0,1,6.12.73C8.42,0,10.56,0,14.82,0h0"></path> <path id="App_Icon_Placeholder-2" data-name="App Icon Placeholder" class="svglg-ic-byhrv-hrfunnel-3" d="M15.3,1.58H27.22c4,0,5.93,0,8.05.67a8.36,8.36,0,0,1,5,5c.67,2.13.67,4.1.67,8.05V27.22c0,4,0,5.93-.67,8.05a8.36,8.36,0,0,1-5,5c-2.13.67-4.1.67-8.05.67H15.3c-4,0-5.93,0-8.05-.67a8.36,8.36,0,0,1-5-5c-.67-2.13-.67-4.1-.67-8.05V15.3c0-4,0-5.93.67-8.05a8.36,8.36,0,0,1,5-5c2.13-.67,4.1-.67,8.05-.67h0"></path> <path id="Bubble_Shape" data-name="Bubble Shape" class="svglg-ic-byhrv-hrfunnel-4" d="M20.89,11.15c-5.42,0-9.82,4.11-9.82,9.18a9,9,0,0,0,3.65,7.14V31l3.35-1.86a10.46,10.46,0,0,0,2.82.38c5.42,0,9.82-4.11,9.82-9.18S26.31,11.15,20.89,11.15Z"></path> <path class="svglg-ic-byhrv-hrfunnel-3" d="M17.61,18.68a.76.76,0,0,0-.76-.76h-.11a.76.76,0,0,0-.76.76V22a.76.76,0,0,0,.76.76h.11a.76.76,0,0,0,.76-.76Z"></path> <path class="svglg-ic-byhrv-hrfunnel-3" d="M20.34,18.11a.76.76,0,0,0-.76-.76h-.11a.76.76,0,0,0-.76.76V22.6a.76.76,0,0,0,.76.76h.11a.76.76,0,0,0,.76-.76Z"></path> <path class="svglg-ic-byhrv-hrfunnel-3" d="M23.07,16.64a.76.76,0,0,0-.76-.76h-.11a.76.76,0,0,0-.76.76v7.43a.76.76,0,0,0,.76.76h.11a.76.76,0,0,0,.76-.76Z"></path> <path class="svglg-ic-byhrv-hrfunnel-3" d="M25.8,18.68a.76.76,0,0,0-.76-.76h-.11a.76.76,0,0,0-.76.76V22a.76.76,0,0,0,.76.76H25A.76.76,0,0,0,25.8,22Z"></path> </g>
								<g id="Layer_3" data-name="Layer 3"> <path class="svglg-ic-byhrv-hrfunnel-1" d="M70.91,40.3h0v1.62H70V37.41h.89v.5h0a1,1,0,0,1,1-.54c.75,0,1.25.55,1.25,1.55v.36c0,1-.5,1.55-1.26,1.55A1,1,0,0,1,70.91,40.3Zm1.31-1.07V39c0-.59-.26-.9-.67-.9s-.68.33-.68.87v.31c0,.52.26.88.68.88S72.22,39.84,72.22,39.23Z"></path> <path class="svglg-ic-byhrv-hrfunnel-1" d="M76.62,39v.22a1.57,1.57,0,1,1-3.14,0V39a1.49,1.49,0,0,1,1.57-1.64A1.47,1.47,0,0,1,76.62,39Zm-2.23,0v.21c0,.48.14,1,.67,1s.66-.48.66-1V39c0-.49-.14-1-.66-1S74.39,38.51,74.39,39Z"></path> <path class="svglg-ic-byhrv-hrfunnel-1" d="M80.8,40.8h-.93l-.63-2.37h0l-.62,2.37h-.94l-.9-3.39h.94l.47,2.46h0l.61-2.46h.84l.62,2.46h0l.48-2.46h.89Z"></path> <path class="svglg-ic-byhrv-hrfunnel-1" d="M81.77,39.24V39a1.52,1.52,0,1,1,3,0v.32H82.65v.11a.69.69,0,0,0,.68.77c.37,0,.57-.19.61-.42h.84a1.29,1.29,0,0,1-1.44,1.1A1.46,1.46,0,0,1,81.77,39.24Zm2.17-.5h0A.65.65,0,0,0,83.3,38a.66.66,0,0,0-.65.73h1.29Z"></path> <path class="svglg-ic-byhrv-hrfunnel-1" d="M85.31,37.41h.9v.47h0a.75.75,0,0,1,.78-.52,1.18,1.18,0,0,1,.28,0v.77a1.34,1.34,0,0,0-.34,0c-.54,0-.73.32-.73.77v1.9h-.92Z"></path> <path class="svglg-ic-byhrv-hrfunnel-1" d="M87.43,39.24V39a1.52,1.52,0,1,1,3,0v.32H88.31v.11a.69.69,0,0,0,.68.77c.37,0,.57-.19.61-.42h.84A1.29,1.29,0,0,1,89,40.86,1.46,1.46,0,0,1,87.43,39.24Zm2.17-.5h0A.65.65,0,0,0,89,38a.66.66,0,0,0-.65.73H89.6Z"></path> <path class="svglg-ic-byhrv-hrfunnel-1" d="M93,37.91h0V36.22H94V40.8h-.89v-.53h0a1,1,0,0,1-1,.57c-.81,0-1.27-.6-1.27-1.56v-.35c0-1,.46-1.56,1.27-1.56A1,1,0,0,1,93,37.91ZM91.72,39v.22c0,.57.24.92.68.92s.68-.32.68-.92V39c0-.57-.26-.9-.68-.9S91.72,38.43,91.72,39Z"></path> <path class="svglg-ic-byhrv-hrfunnel-1" d="M97.79,40.27h0v.53h-.89V36.22h.9v1.69h0a1,1,0,0,1,1-.54c.8,0,1.27.58,1.27,1.57v.32c0,1-.48,1.58-1.28,1.58A1,1,0,0,1,97.79,40.27Zm1.33-1V39c0-.6-.26-.91-.67-.91s-.68.35-.68.89v.29c0,.5.24.88.68.88S99.12,39.83,99.12,39.23Z"></path> <path class="svglg-ic-byhrv-hrfunnel-1" d="M102.43,40.68l-.09.23A1.4,1.4,0,0,1,100.88,42a2.81,2.81,0,0,1-.48,0v-.64l.28,0c.42,0,.56-.16.61-.44l0-.11-1.16-3.39h1l.68,2.63h0l.7-2.63h1Z"></path> <path class="svglg-ic-byhrv-hrfunnel-5" d="M121.37,36.84a1.25,1.25,0,0,0-1.14.56l-.15.23V35.51h-.67V40.8h.67V38.58a1.07,1.07,0,0,1,.28-.78,1,1,0,0,1,.77-.29c.67,0,1,.37,1,1.08v2.2h.67V38.41a1.62,1.62,0,0,0-.4-1.1A1.33,1.33,0,0,0,121.37,36.84Z"></path> <polygon class="svglg-ic-byhrv-hrfunnel-5" points="138.04 39.29 137.02 36.84 136.27 36.84 138.04 40.79 139.82 36.84 139.06 36.84 138.04 39.29"></polygon> <path class="svglg-ic-byhrv-hrfunnel-5" d="M148.79,37.31a1.39,1.39,0,0,0-1.06-.47,1.26,1.26,0,0,0-1.29.63v-.63h-.67v4h.67V38.58a1.07,1.07,0,0,1,.28-.77,1,1,0,0,1,.77-.29c.67,0,1,.37,1,1.08v2.2h.67V38.41A1.63,1.63,0,0,0,148.79,37.31Z"></path> <path class="svglg-ic-byhrv-hrfunnel-5" d="M127.32,37.34a2,2,0,0,0-1.23-.44,1.92,1.92,0,1,0,0,3.84,2,2,0,0,0,1.23-.44v.52h.74V39.35h0v-.85h0V36.81h-.74ZM126.08,40a1.22,1.22,0,1,1,1.22-1.22A1.22,1.22,0,0,1,126.08,40Z"></path> <path class="svglg-ic-byhrv-hrfunnel-5" d="M134.88,37.34a2,2,0,0,0-1.23-.44,1.92,1.92,0,1,0,0,3.84,2,2,0,0,0,1.23-.44v.52h.74V39.35h0v-.85h0V36.81h-.74ZM133.65,40a1.22,1.22,0,1,1,1.22-1.22A1.22,1.22,0,0,1,133.65,40Z"></path> <path class="svglg-ic-byhrv-hrfunnel-5" d="M143.67,37.34a2,2,0,0,0-1.22-.44,1.92,1.92,0,0,0,0,3.84,2,2,0,0,0,1.22-.44v.52h.74V39.35h0v-.85h0V36.81h-.74ZM142.46,40a1.22,1.22,0,1,1,1.22-1.22A1.22,1.22,0,0,1,142.46,40Z"></path> <path class="svglg-ic-byhrv-hrfunnel-5" d="M130,37.29v-.48h-.68v4H130V38.19a.69.69,0,0,1,.23-.48.79.79,0,0,1,.54-.19,1,1,0,0,1,.34.07v-.74h-.19A1,1,0,0,0,130,37.29Z"></path> <path class="svglg-ic-byhrv-hrfunnel-5" d="M111.35,40.47v.2l.43-.21.66-.34v-.74h-1.09v1.08h0Z"></path> <path class="svglg-ic-byhrv-hrfunnel-5" d="M107,37.17v0l.13.94,0,.15v0l.11.78,0,.28.09.68.06.41.07.55.07.54,0,.19.23,0h.21a4.79,4.79,0,0,0,1-.18v0l-.12-.86,0-.23-.1-.73,0-.36-.08-.6,0-.18,0-.32-.06-.47-.08-.62,0-.34,0-.19-.32,0-.66.08-.43,0h0v.1Z"></path> <path class="svglg-ic-byhrv-hrfunnel-5" d="M108.56,36.1l.07.55.07.54.05.42.09.67,0,.29v0l.1.75,0,.17.12.92v0l0,.25.09.71v.05c.31-.1.64-.22,1-.36v-.69h0V39.38h0V38.29h0V37.2h1.09v1.08h1.09V37.2h1.09v1.08h0v1.08h0v.14l.26-.15.83-.49.62-.38,0-.23-.07-.52V37.7l-.06-.5L115,36.8l-.09-.7,0-.27-.1-.82,0-.15-.05-.43h-.1l-.59.07-.5.06-.15,0a2.73,2.73,0,0,0,.15.28l0,.08h.06a.19.19,0,0,1,.17.07.18.18,0,0,1,0,.09.18.18,0,0,1-.14.2l-.17-.28h0q-.22-.35-.43-.64t-.35-.45l-.14-.16-.17-.18a2.68,2.68,0,0,0-.41-.34,1,1,0,0,0-.63-.2h0c-.37.06-.63.41-.86.87-.08.16-.16.34-.23.52l-.15.38L110,35l-.16.39c-.06.13-.11.26-.17.37a.18.18,0,0,1-.11-.09.17.17,0,0,1,0-.08.17.17,0,0,1,.18-.18h0c0-.12.08-.25.13-.42v0l-.16,0-.6.07h-.07l-.66.08.07.52Zm2.79-2.9h.06a.84.84,0,0,1,.51.16l.15.1-.19-.06a1.23,1.23,0,0,0-.45,0h-.09a1.21,1.21,0,0,0-.5.22A.87.87,0,0,1,111.35,33.2Zm-1.2,1.92,0-.12.05-.13v0c.08-.2.15-.39.23-.58a1.72,1.72,0,0,1,.23-.35,1.15,1.15,0,0,1,.63-.4l.1,0a1,1,0,0,1,.31,0,1.54,1.54,0,0,1,.68.34l0,0,0,0,.21.21.26.35.11.15-.29,0-.36,0-.87.1-.22,0-1,.12h0l0,.06h0l0,0-.11.15Z"></path> <path class="svglg-ic-byhrv-hrfunnel-5" d="M115.2,36.62l.07.57.05.4v0l.09.67v.11l.18-.11.1-.06.2-.12.89-.58.49-.33.34-.23-.07-.52v-.06l0-.28-.08-.59h0l-.6.07-.64.07-.45.05-.62.07,0,.32Z"></path> <polygon class="svglg-ic-byhrv-hrfunnel-5" points="112.45 38.28 112.44 38.28 112.44 38.29 112.45 38.28"></polygon> <polygon class="svglg-ic-byhrv-hrfunnel-5" points="112.44 39.38 112.45 39.37 112.44 39.37 112.44 39.38"></polygon> <path class="svglg-ic-byhrv-hrfunnel-5" d="M108.08,43.1a3.3,3.3,0,0,0,.69,0l.4-.08a9.38,9.38,0,0,0,1.09-.33h0c.35-.13.71-.28,1.08-.44l.86-.4.24-.12.25-.13.84-.45,1-.59,0,0,0,0,1-.62.75-.47.34-.22.62-.4.4-.26,0-.12h0v-.08l-.09-.69-.63.42-.28.18-.14.09-1,.6-.79.49-.3.18-.41.24-.68.39-.52.29-.57.3-.59.3-.5.24-.56.25-.53.22-.34.13c-.26.09-.51.18-.75.24a6.14,6.14,0,0,1-.74.16l-.35,0a2.29,2.29,0,0,1-.56,0l-.14,0a.85.85,0,0,1-.56-.53s0-.12-.05-.18a2.35,2.35,0,0,1,0-.87l0-.22a5.77,5.77,0,0,1,.17-.57c0-.13.09-.24.13-.35l-.13.27a6.58,6.58,0,0,0-.26.65h0c0,.12-.08.25-.11.38a3.18,3.18,0,0,0-.1.71,1.91,1.91,0,0,0,0,.42v0a1.26,1.26,0,0,0,.35.64l0,0,0,0a1.73,1.73,0,0,0,.7.33l.14,0Z"></path> <path class="svglg-ic-byhrv-hrfunnel-5" d="M118,39.37V39.3l-.07-.51h0l-.89.58-.2.13-.31.2-.78.48-.49.29-.6.35-.78.44-.31.17-.25.13-.84.43-.79.37-.3.13-.39.16-.7.27-.38.13c-.25.08-.48.14-.71.19a5.25,5.25,0,0,1-.67.1h-.42l-.35,0h0a2,2,0,0,0,.36.17h0l.21.06a3,3,0,0,0,.87,0l.2,0a6.93,6.93,0,0,0,.89-.17l.52-.15.57-.19c.32-.12.64-.25,1-.38l.13-.06.12-.05,1-.46,1-.52.08,0,.11-.06,1-.55.74-.44.35-.21.58-.36.49-.32h0l.1-.07Z"></path> </g>
							</g>
						</svg>