<svg class="svg_iconlogo_hraretail" xmlns="http://www.w3.org/2000/svg" viewBox="0 0 142.45 43.94">
							<g id="Layer_2" data-name="Layer 2">
								<g id="Layer_4" data-name="Layer 4"> <path id="App_Icon_Placeholder" data-name="App Icon Placeholder" class="svglg-ic-byhrv-hraretail-1" d="M14.79,0H27.63C31.88,0,34,0,36.3.72a9,9,0,0,1,5.38,5.38c.72,2.29.72,4.42.72,8.68V27.63c0,4.26,0,6.39-.72,8.68a9,9,0,0,1-5.38,5.38c-2.29.72-4.42.72-8.68.72H14.79c-4.26,0-6.39,0-8.68-.72A9,9,0,0,1,.72,36.3C0,34,0,31.88,0,27.63V14.79C0,10.53,0,8.4.72,6.11A9,9,0,0,1,6.11.72C8.4,0,10.53,0,14.79,0h0"></path> <path id="App_Icon_Placeholder-2" data-name="App Icon Placeholder" class="svglg-ic-byhrv-hraretail-2" d="M15.26,1.57H27.15c3.94,0,5.91,0,8,.67a8.34,8.34,0,0,1,5,5c.67,2.12.67,4.09.67,8V27.15c0,3.94,0,5.91-.67,8a8.34,8.34,0,0,1-5,5c-2.12.67-4.09.67-8,.67H15.26c-3.94,0-5.91,0-8-.67a8.34,8.34,0,0,1-5-5c-.67-2.12-.67-4.09-.67-8V15.26c0-3.94,0-5.91.67-8a8.34,8.34,0,0,1,5-5c2.12-.67,4.09-.67,8-.67h0"></path> <path class="svglg-ic-byhrv-hraretail-3" d="M28.94,11.26a.68.68,0,0,0-.71-.65l-8.34.79a1.31,1.31,0,0,0-.94.42l-9,9.9A1.31,1.31,0,0,0,10,23.56l7.69,7a1.3,1.3,0,0,0,1.84-.08l9-9.9a1.3,1.3,0,0,0,.33-1ZM26.2,14.82a1.22,1.22,0,1,1,1.22-1.22A1.22,1.22,0,0,1,26.2,14.82Z"></path> <path class="svglg-ic-byhrv-hraretail-3" d="M31.66,18.65l-2.38-7.1h0a1.63,1.63,0,0,0-.74-.89v2L30.67,19a1.16,1.16,0,0,1,0,.92L25.85,31a1.17,1.17,0,0,1-1.54.6l-3.22-1.41-.76.81,3.56,1.56a2.22,2.22,0,0,0,2.92-1.15l4.82-11A2.22,2.22,0,0,0,31.66,18.65Z"></path> <path class="svglg-ic-byhrv-hraretail-4" d="M51.88,14.26v5.43a4,4,0,0,1,3.41-1.64c3.1,0,4.47,2.1,4.47,5.31v5.75h-2.7V23.39c0-2-1-2.83-2.48-2.83a2.8,2.8,0,0,0-2.7,3v5.58h-2.7V14.26Z"></path> <path class="svglg-ic-byhrv-hraretail-4" d="M72.62,18.06H70.1V19.9l-.1-.16c-.09-.13-.19-.26-.29-.39a3.29,3.29,0,0,0-.54-.48,4.43,4.43,0,0,0-2-.77h0a4.86,4.86,0,0,0-.54,0,6.85,6.85,0,0,0-2.13.31,5.54,5.54,0,0,0-3.46,4.05,7,7,0,0,0-.09,1.14,7.51,7.51,0,0,0,.1,1.22,5.5,5.5,0,0,0,4.69,4.33,5.43,5.43,0,0,0,.65,0h.19A4.9,4.9,0,0,0,67.63,29l.11,0a4,4,0,0,0,2-1.2c.1-.13.19-.27.27-.41l.11-.2v2h2.55V18.06Zm-5.83,8.69a3.07,3.07,0,0,1-3.23-3.2,3.05,3.05,0,0,1,3.23-3.18C71,20.37,71,26.75,66.78,26.75Z"></path> <path class="svglg-ic-byhrv-hraretail-4" d="M92.31,18.06H89.79V19.9l-.1-.16c-.09-.13-.19-.26-.29-.39a3.29,3.29,0,0,0-.54-.48,4.43,4.43,0,0,0-2-.77h0a4.86,4.86,0,0,0-.54,0,6.85,6.85,0,0,0-2.13.31,5.54,5.54,0,0,0-3.46,4.05,7,7,0,0,0-.09,1.14,7.51,7.51,0,0,0,.1,1.22,5.5,5.5,0,0,0,4.69,4.33,5.43,5.43,0,0,0,.65,0h.19A4.9,4.9,0,0,0,87.32,29l.11,0a4,4,0,0,0,2-1.2c.1-.13.19-.27.27-.41l.11-.2v2h2.55V18.06Zm-5.83,8.69a3.07,3.07,0,0,1-3.23-3.2,3.05,3.05,0,0,1,3.23-3.18C90.72,20.37,90.72,26.75,86.47,26.75Z"></path> <path class="svglg-ic-byhrv-hraretail-4" d="M133.29,18.06h-2.51V19.9l-.1-.16c-.09-.13-.19-.26-.29-.39a3.29,3.29,0,0,0-.54-.48,4.43,4.43,0,0,0-2-.77h0a4.86,4.86,0,0,0-.54,0,6.85,6.85,0,0,0-2.13.31,5.54,5.54,0,0,0-3.46,4.05,7,7,0,0,0-.09,1.14,7.51,7.51,0,0,0,.1,1.22,5.5,5.5,0,0,0,4.69,4.33,5.43,5.43,0,0,0,.65,0h.19A4.9,4.9,0,0,0,128.3,29l.11,0a4,4,0,0,0,2-1.2c.1-.13.19-.27.27-.41l.11-.2v2h2.55V18.06Zm-5.83,8.69a3.07,3.07,0,0,1-3.23-3.2,3.05,3.05,0,0,1,3.23-3.18C131.7,20.37,131.7,26.75,127.45,26.75Z"></path> <path class="svglg-ic-byhrv-hraretail-4" d="M79.79,18a3.23,3.23,0,0,0-3.08,1.53V18H74V29.14h2.7V23.43a2.5,2.5,0,0,1,2.72-2.74l.39,0V18Z"></path> <path class="svglg-ic-byhrv-hraretail-4" d="M100.09,18A3.23,3.23,0,0,0,97,19.58V18h-2.7V29.14H97V23.43a2.5,2.5,0,0,1,2.72-2.74l.39,0V18Z"></path> <path class="svglg-ic-byhrv-hraretail-4" d="M103.68,24.54c.17,1.29,1.29,2.23,3.12,2.23a4.32,4.32,0,0,0,2.8-1l1.66,1.63a6.43,6.43,0,0,1-4.5,1.7c-3.61,0-5.75-2.23-5.75-5.58a5.24,5.24,0,0,1,5.56-5.48c3.5,0,5.69,2.17,5.29,6.47Zm5.69-2.14c-.17-1.36-1.23-2-2.72-2a2.82,2.82,0,0,0-2.93,2Z"></path> <path class="svglg-ic-byhrv-hraretail-4" d="M117.24,14.25V18h2.93V20.3h-2.95v4.95a1.32,1.32,0,0,0,1.38,1.51,3,3,0,0,0,1.27-.32l.73,2.24a5.86,5.86,0,0,1-2.17.45c-2.3.09-3.81-1.23-3.81-3.87V20.3h-2V18h2V14.53Z"></path> <path class="svglg-ic-byhrv-hraretail-4" d="M138,15.15a1.59,1.59,0,0,1-3.19,0A1.59,1.59,0,0,1,138,15.15Z"></path> <rect class="svglg-ic-byhrv-hraretail-4" x="135.06" y="18.05" width="2.7" height="11.09"></rect> <path class="svglg-ic-byhrv-hraretail-4" d="M142.45,14.19v15h-2.68v-15Z"></path> </g>
								<g id="Layer_3" data-name="Layer 3"> <path class="svglg-ic-byhrv-hraretail-4" d="M64,40.67h0v1.62H63V37.77h.89v.5h0a1,1,0,0,1,1-.54c.75,0,1.25.55,1.25,1.55v.36c0,1-.5,1.55-1.26,1.55A1,1,0,0,1,64,40.67Zm1.31-1.07v-.26c0-.59-.26-.9-.67-.9s-.68.33-.68.87v.31c0,.52.26.88.68.88S65.26,40.2,65.26,39.6Z"></path> <path class="svglg-ic-byhrv-hraretail-4" d="M69.66,39.35v.22a1.57,1.57,0,1,1-3.14,0v-.22a1.49,1.49,0,0,1,1.57-1.64A1.47,1.47,0,0,1,69.66,39.35Zm-2.23,0v.21c0,.48.14,1,.67,1s.66-.48.66-1v-.21c0-.49-.14-1-.66-1S67.43,38.87,67.43,39.36Z"></path> <path class="svglg-ic-byhrv-hraretail-4" d="M73.84,41.16H72.9l-.63-2.37h0l-.62,2.37h-.94l-.9-3.39h.94l.47,2.46h0l.61-2.46h.84l.62,2.46h0l.48-2.46h.89Z"></path> <path class="svglg-ic-byhrv-hraretail-4" d="M74.81,39.6v-.26a1.52,1.52,0,1,1,3,0v.32H75.69v.11a.69.69,0,0,0,.68.77c.37,0,.57-.19.61-.42h.84a1.29,1.29,0,0,1-1.44,1.1A1.46,1.46,0,0,1,74.81,39.6Zm2.17-.5h0a.65.65,0,0,0-.64-.73.66.66,0,0,0-.65.73H77Z"></path> <path class="svglg-ic-byhrv-hraretail-4" d="M78.35,37.77h.9v.47h0a.75.75,0,0,1,.78-.52,1.18,1.18,0,0,1,.28,0v.77a1.34,1.34,0,0,0-.34,0c-.54,0-.73.32-.73.77v1.9h-.92Z"></path> <path class="svglg-ic-byhrv-hraretail-4" d="M80.47,39.6v-.26a1.52,1.52,0,1,1,3,0v.32H81.35v.11a.69.69,0,0,0,.68.77c.37,0,.57-.19.61-.42h.84A1.29,1.29,0,0,1,82,41.22,1.46,1.46,0,0,1,80.47,39.6Zm2.17-.5h0a.65.65,0,0,0-.64-.73.66.66,0,0,0-.65.73h1.29Z"></path> <path class="svglg-ic-byhrv-hraretail-4" d="M86.08,38.27h0V36.59H87v4.58h-.89v-.53h0a1,1,0,0,1-1,.57c-.81,0-1.27-.6-1.27-1.56v-.35c0-1,.46-1.56,1.27-1.56A1,1,0,0,1,86.08,38.27Zm-1.32,1.09v.22c0,.57.24.92.68.92s.68-.32.68-.92v-.23c0-.57-.26-.9-.68-.9S84.76,38.8,84.76,39.36Z"></path> <path class="svglg-ic-byhrv-hraretail-4" d="M90.83,40.64h0v.53h-.89V36.59h.9v1.69h0a1,1,0,0,1,1-.54c.8,0,1.27.58,1.27,1.57v.32c0,1-.48,1.58-1.28,1.58A1,1,0,0,1,90.83,40.64Zm1.33-1v-.25c0-.6-.26-.91-.67-.91s-.68.35-.68.89v.29c0,.5.24.88.68.88S92.16,40.19,92.16,39.6Z"></path> <path class="svglg-ic-byhrv-hraretail-4" d="M95.46,41l-.09.23a1.4,1.4,0,0,1-1.46,1.09,2.81,2.81,0,0,1-.48,0v-.64l.28,0c.42,0,.56-.16.61-.44l0-.11L93.2,37.77h1l.68,2.63h0l.7-2.63h1Z"></path> <path class="svglg-ic-byhrv-hraretail-5" d="M114.41,37.2a1.25,1.25,0,0,0-1.14.56l-.15.23V35.87h-.67v5.29h.67V38.95a1.07,1.07,0,0,1,.28-.78,1,1,0,0,1,.77-.29c.67,0,1,.37,1,1.08v2.2h.67V38.78a1.62,1.62,0,0,0-.4-1.1A1.33,1.33,0,0,0,114.41,37.2Z"></path> <polygon class="svglg-ic-byhrv-hraretail-5" points="131.09 39.65 130.06 37.2 129.31 37.2 131.08 41.15 132.86 37.2 132.1 37.2 131.09 39.65"></polygon> <path class="svglg-ic-byhrv-hraretail-5" d="M141.83,37.67a1.39,1.39,0,0,0-1.06-.47,1.26,1.26,0,0,0-1.29.63V37.2h-.67v4h.67V38.94a1.07,1.07,0,0,1,.28-.77,1,1,0,0,1,.77-.29c.67,0,1,.37,1,1.08v2.2h.67V38.78A1.63,1.63,0,0,0,141.83,37.67Z"></path> <path class="svglg-ic-byhrv-hraretail-5" d="M120.36,37.7a2,2,0,0,0-1.23-.44,1.92,1.92,0,1,0,0,3.84,2,2,0,0,0,1.23-.44v.52h.74V39.71h0v-.85h0V37.18h-.74Zm-1.24,2.7a1.22,1.22,0,1,1,1.22-1.22A1.22,1.22,0,0,1,119.12,40.4Z"></path> <path class="svglg-ic-byhrv-hraretail-5" d="M127.92,37.7a2,2,0,0,0-1.23-.44,1.92,1.92,0,1,0,0,3.84,2,2,0,0,0,1.23-.44v.52h.74V39.71h0v-.85h0V37.18h-.74Zm-1.23,2.7a1.22,1.22,0,1,1,1.22-1.22A1.22,1.22,0,0,1,126.69,40.4Z"></path> <path class="svglg-ic-byhrv-hraretail-5" d="M136.71,37.7a2,2,0,0,0-1.22-.44,1.92,1.92,0,0,0,0,3.84,2,2,0,0,0,1.22-.44v.52h.74V39.71h0v-.85h0V37.18h-.74Zm-1.21,2.7a1.22,1.22,0,1,1,1.22-1.22A1.22,1.22,0,0,1,135.5,40.4Z"></path> <path class="svglg-ic-byhrv-hraretail-5" d="M123.06,37.65v-.48h-.68v4h.68V38.55a.69.69,0,0,1,.23-.48.79.79,0,0,1,.54-.19,1,1,0,0,1,.34.07v-.74H124A1,1,0,0,0,123.06,37.65Z"></path> <path class="svglg-ic-byhrv-hraretail-5" d="M104.39,40.84V41l.43-.21.66-.34v-.74h-1.09v1.08h0Z"></path> <path class="svglg-ic-byhrv-hraretail-5" d="M100.06,37.53v0l.13.94,0,.15v0l.11.78,0,.28.09.68.06.41.07.55.07.54,0,.19.23,0h.21a4.79,4.79,0,0,0,1-.18v0l-.12-.86,0-.23-.1-.73,0-.36-.08-.6,0-.18,0-.32-.06-.47-.08-.62,0-.34,0-.19-.32,0-.66.08-.43,0h0v.1Z"></path> <path class="svglg-ic-byhrv-hraretail-5" d="M101.6,36.46l.07.55.07.54.05.42.09.67,0,.29v0l.1.75,0,.17.12.92v0l0,.25.09.71v.05c.31-.1.64-.22,1-.36v-.69h0V39.74h0V38.65h0V37.56h1.09v1.08h1.09V37.56h1.09v1.08h0v1.08h0v.14l.26-.15.83-.49.62-.38,0-.23-.07-.52v-.07l-.06-.5-.05-.39-.09-.7,0-.27-.1-.82,0-.15-.05-.43h-.1l-.59.07-.5.06-.15,0a2.73,2.73,0,0,0,.15.28l0,.08h.06a.19.19,0,0,1,.17.07.18.18,0,0,1,0,.09.18.18,0,0,1-.14.2l-.17-.28h0q-.22-.35-.43-.64t-.35-.45l-.14-.16-.17-.18a2.68,2.68,0,0,0-.41-.34,1,1,0,0,0-.63-.2h0c-.37.06-.63.41-.86.87-.08.16-.16.34-.23.52l-.15.38-.07.19-.16.39c-.06.13-.11.26-.17.37a.18.18,0,0,1-.11-.09.17.17,0,0,1,0-.08.17.17,0,0,1,.18-.18h0c0-.12.08-.25.13-.42v0l-.16,0-.6.07h-.07l-.66.08.07.52Zm2.79-2.9h.06a.84.84,0,0,1,.51.16l.15.1-.19-.06a1.23,1.23,0,0,0-.45,0h-.09a1.21,1.21,0,0,0-.5.22A.87.87,0,0,1,104.39,33.57Zm-1.2,1.92,0-.12.05-.13v0c.08-.2.15-.39.23-.58a1.72,1.72,0,0,1,.23-.35,1.15,1.15,0,0,1,.63-.4l.1,0a1,1,0,0,1,.31,0,1.54,1.54,0,0,1,.68.34l0,0,0,0,.21.21.26.35.11.15-.29,0-.36,0-.87.1-.22,0-1,.12h0l0,.06h0l0,0-.11.15Z"></path> <path class="svglg-ic-byhrv-hraretail-5" d="M108.24,37l.07.57.05.4v0l.09.67v.11l.18-.11.1-.06.2-.12.89-.58.49-.33.34-.23-.07-.52v-.06l0-.28-.08-.59h0l-.6.07-.64.07-.45.05-.62.07,0,.32Z"></path> <polygon class="svglg-ic-byhrv-hraretail-5" points="105.49 38.65 105.48 38.65 105.48 38.65 105.49 38.65"></polygon> <polygon class="svglg-ic-byhrv-hraretail-5" points="105.48 39.74 105.49 39.74 105.48 39.74 105.48 39.74"></polygon> <path class="svglg-ic-byhrv-hraretail-5" d="M101.12,43.46a3.3,3.3,0,0,0,.69,0l.4-.08A9.38,9.38,0,0,0,103.3,43h0c.35-.13.71-.28,1.08-.44l.86-.4.24-.12.25-.13.84-.45,1-.59,0,0,0,0,1-.62.75-.47.34-.22.62-.4.4-.26,0-.12h0v-.08l-.09-.69-.63.42-.28.18-.14.09-1,.6-.79.49-.3.18-.41.24-.68.39-.52.29-.57.3-.59.3-.5.24-.56.25-.53.22-.34.13c-.26.09-.51.18-.75.24a6.14,6.14,0,0,1-.74.16l-.35,0a2.29,2.29,0,0,1-.56,0l-.14,0a.85.85,0,0,1-.56-.53s0-.12-.05-.18a2.35,2.35,0,0,1,0-.87l0-.22a5.77,5.77,0,0,1,.17-.57c0-.13.09-.24.13-.35l-.13.27a6.58,6.58,0,0,0-.26.65h0c0,.12-.08.25-.11.38a3.18,3.18,0,0,0-.1.71,1.91,1.91,0,0,0,0,.42v0A1.26,1.26,0,0,0,100,43l0,0,0,0a1.73,1.73,0,0,0,.7.33l.14,0Z"></path> <path class="svglg-ic-byhrv-hraretail-5" d="M111,39.74v-.08l-.07-.51h0l-.89.58-.2.13-.31.2-.78.48-.49.29-.6.35-.78.44-.31.17-.25.13-.84.43-.79.37-.3.13L104,43l-.7.27-.38.13c-.25.08-.48.14-.71.19a5.25,5.25,0,0,1-.67.1h-.42l-.35,0h0a2,2,0,0,0,.36.17h0l.21.06a3,3,0,0,0,.87,0l.2,0a6.93,6.93,0,0,0,.89-.17l.52-.15.57-.19c.32-.12.64-.25,1-.38l.13-.06.12-.05,1-.46,1-.52.08,0,.11-.06,1-.55.74-.44.35-.21.58-.36.49-.32h0l.1-.07Z"></path> </g>
							</g>
						</svg>